<mxfile host="Electron" modified="2023-05-27T17:35:28.120Z" agent="Mozilla/5.0 (Windows NT 10.0; Win64; x64) AppleWebKit/537.36 (KHTML, like Gecko) draw.io/21.1.2 Chrome/106.0.5249.199 Electron/21.4.3 Safari/537.36" etag="CqBKUEaqUR3cZ90epOpA" version="21.1.2" type="device">
  <diagram name="Page-1" id="46ogTC7TSbxpANMFQ1q6">
    <mxGraphModel dx="1206" dy="817" grid="1" gridSize="10" guides="1" tooltips="1" connect="1" arrows="1" fold="1" page="1" pageScale="1" pageWidth="850" pageHeight="1100" math="0" shadow="0">
      <root>
        <mxCell id="0" />
        <mxCell id="1" parent="0" />
        <mxCell id="0hi8Mgu3aMCCChuHKEOj-1" value="Component" style="swimlane;fontStyle=1;align=center;verticalAlign=top;childLayout=stackLayout;horizontal=1;startSize=26;horizontalStack=0;resizeParent=1;resizeParentMax=0;resizeLast=0;collapsible=1;marginBottom=0;" parent="1" vertex="1">
          <mxGeometry x="340" y="160" width="180" height="130" as="geometry" />
        </mxCell>
        <mxCell id="0hi8Mgu3aMCCChuHKEOj-2" value="+ name: String&#xa;+ children: List[Component]" style="text;strokeColor=none;fillColor=none;align=left;verticalAlign=top;spacingLeft=4;spacingRight=4;overflow=hidden;rotatable=0;points=[[0,0.5],[1,0.5]];portConstraint=eastwest;" parent="0hi8Mgu3aMCCChuHKEOj-1" vertex="1">
          <mxGeometry y="26" width="180" height="34" as="geometry" />
        </mxCell>
        <mxCell id="0hi8Mgu3aMCCChuHKEOj-3" value="" style="line;strokeWidth=1;fillColor=none;align=left;verticalAlign=middle;spacingTop=-1;spacingLeft=3;spacingRight=3;rotatable=0;labelPosition=right;points=[];portConstraint=eastwest;strokeColor=inherit;" parent="0hi8Mgu3aMCCChuHKEOj-1" vertex="1">
          <mxGeometry y="60" width="180" height="8" as="geometry" />
        </mxCell>
        <mxCell id="0hi8Mgu3aMCCChuHKEOj-4" value="+ add()&#xa;+ delete()&#xa;+ display()" style="text;strokeColor=none;fillColor=none;align=left;verticalAlign=top;spacingLeft=4;spacingRight=4;overflow=hidden;rotatable=0;points=[[0,0.5],[1,0.5]];portConstraint=eastwest;" parent="0hi8Mgu3aMCCChuHKEOj-1" vertex="1">
          <mxGeometry y="68" width="180" height="62" as="geometry" />
        </mxCell>
        <mxCell id="0hi8Mgu3aMCCChuHKEOj-14" style="edgeStyle=orthogonalEdgeStyle;rounded=0;orthogonalLoop=1;jettySize=auto;html=1;" parent="1" source="0hi8Mgu3aMCCChuHKEOj-5" target="0hi8Mgu3aMCCChuHKEOj-1" edge="1">
          <mxGeometry relative="1" as="geometry" />
        </mxCell>
        <mxCell id="0hi8Mgu3aMCCChuHKEOj-5" value="Leaf" style="swimlane;fontStyle=1;align=center;verticalAlign=top;childLayout=stackLayout;horizontal=1;startSize=26;horizontalStack=0;resizeParent=1;resizeParentMax=0;resizeLast=0;collapsible=1;marginBottom=0;" parent="1" vertex="1">
          <mxGeometry x="130" y="320" width="160" height="100" as="geometry" />
        </mxCell>
        <mxCell id="0hi8Mgu3aMCCChuHKEOj-6" value="+ name: String&#xa;" style="text;strokeColor=none;fillColor=none;align=left;verticalAlign=top;spacingLeft=4;spacingRight=4;overflow=hidden;rotatable=0;points=[[0,0.5],[1,0.5]];portConstraint=eastwest;" parent="0hi8Mgu3aMCCChuHKEOj-5" vertex="1">
          <mxGeometry y="26" width="160" height="26" as="geometry" />
        </mxCell>
        <mxCell id="0hi8Mgu3aMCCChuHKEOj-7" value="" style="line;strokeWidth=1;fillColor=none;align=left;verticalAlign=middle;spacingTop=-1;spacingLeft=3;spacingRight=3;rotatable=0;labelPosition=right;points=[];portConstraint=eastwest;strokeColor=inherit;" parent="0hi8Mgu3aMCCChuHKEOj-5" vertex="1">
          <mxGeometry y="52" width="160" height="8" as="geometry" />
        </mxCell>
        <mxCell id="0hi8Mgu3aMCCChuHKEOj-8" value="+ display()&#xa;+ delete()" style="text;strokeColor=none;fillColor=none;align=left;verticalAlign=top;spacingLeft=4;spacingRight=4;overflow=hidden;rotatable=0;points=[[0,0.5],[1,0.5]];portConstraint=eastwest;" parent="0hi8Mgu3aMCCChuHKEOj-5" vertex="1">
          <mxGeometry y="60" width="160" height="40" as="geometry" />
        </mxCell>
        <mxCell id="0hi8Mgu3aMCCChuHKEOj-9" value="Composite" style="swimlane;fontStyle=1;align=center;verticalAlign=top;childLayout=stackLayout;horizontal=1;startSize=26;horizontalStack=0;resizeParent=1;resizeParentMax=0;resizeLast=0;collapsible=1;marginBottom=0;" parent="1" vertex="1">
          <mxGeometry x="520" y="320" width="180" height="104" as="geometry" />
        </mxCell>
        <mxCell id="0hi8Mgu3aMCCChuHKEOj-10" value="+ name: String&#xa;+ children: List[Component]" style="text;strokeColor=none;fillColor=none;align=left;verticalAlign=top;spacingLeft=4;spacingRight=4;overflow=hidden;rotatable=0;points=[[0,0.5],[1,0.5]];portConstraint=eastwest;" parent="0hi8Mgu3aMCCChuHKEOj-9" vertex="1">
          <mxGeometry y="26" width="180" height="44" as="geometry" />
        </mxCell>
        <mxCell id="0hi8Mgu3aMCCChuHKEOj-11" value="" style="line;strokeWidth=1;fillColor=none;align=left;verticalAlign=middle;spacingTop=-1;spacingLeft=3;spacingRight=3;rotatable=0;labelPosition=right;points=[];portConstraint=eastwest;strokeColor=inherit;" parent="0hi8Mgu3aMCCChuHKEOj-9" vertex="1">
          <mxGeometry y="70" width="180" height="8" as="geometry" />
        </mxCell>
        <mxCell id="0hi8Mgu3aMCCChuHKEOj-12" value="+ method(type): type" style="text;strokeColor=none;fillColor=none;align=left;verticalAlign=top;spacingLeft=4;spacingRight=4;overflow=hidden;rotatable=0;points=[[0,0.5],[1,0.5]];portConstraint=eastwest;" parent="0hi8Mgu3aMCCChuHKEOj-9" vertex="1">
          <mxGeometry y="78" width="180" height="26" as="geometry" />
        </mxCell>
        <mxCell id="0hi8Mgu3aMCCChuHKEOj-15" style="edgeStyle=orthogonalEdgeStyle;rounded=0;orthogonalLoop=1;jettySize=auto;html=1;entryX=0.626;entryY=1.011;entryDx=0;entryDy=0;entryPerimeter=0;" parent="1" source="0hi8Mgu3aMCCChuHKEOj-10" target="0hi8Mgu3aMCCChuHKEOj-4" edge="1">
          <mxGeometry relative="1" as="geometry" />
        </mxCell>
        <mxCell id="0hi8Mgu3aMCCChuHKEOj-17" value="" style="endArrow=diamondThin;endFill=0;endSize=24;html=1;rounded=0;entryX=1.004;entryY=0.172;entryDx=0;entryDy=0;entryPerimeter=0;" parent="1" target="0hi8Mgu3aMCCChuHKEOj-4" edge="1">
          <mxGeometry width="160" relative="1" as="geometry">
            <mxPoint x="520" y="190" as="sourcePoint" />
            <mxPoint x="680" y="250" as="targetPoint" />
            <Array as="points">
              <mxPoint x="640" y="190" />
              <mxPoint x="640" y="240" />
            </Array>
          </mxGeometry>
        </mxCell>
      </root>
    </mxGraphModel>
  </diagram>
</mxfile>
